<svg xmlns="http://www.w3.org/2000/svg" id="White_Badges" viewBox="0 0 704.36 800"><defs><style>.cls-2{fill:#fff}.cls-3{fill:#ff3100}.cls-5{fill:#252530}</style></defs><path d="M667.54 638.24 352.18 800 36.82 638.24V0h630.72v638.24z" style="fill:#f8f8f8"/><path d="M37.56 0v638.24L668.28 0H37.56z" class="cls-2"/><path d="M661.54 6v628.58L352.18 793.26 42.82 634.58V6h618.72m6-6H36.82v638.24L352.18 800l315.36-161.76V0Z" style="fill:#dcdfdd"/><path d="m424.91 114.11-73.36 42.63-72.1-42.63V0h145.46v114.11z" class="cls-3"/><path d="M387.21 56.45h-13.66c.37-2.15 1.69-3.34 4.38-4.71l2.52-1.28c4.5-2.31 6.89-4.91 6.89-9.16 0-2.68-1.03-4.79-3.1-6.32-2.02-1.53-4.5-2.27-7.35-2.27-2.27 0-4.33.58-6.23 1.77-1.86 1.16-3.26 2.64-4.13 4.5l3.96 3.96c1.53-3.1 3.76-4.62 6.69-4.62 2.48 0 4 1.28 4 3.05 0 1.49-.74 2.72-3.59 4.17l-1.61.78c-3.51 1.77-5.95 3.8-7.35 6.11-1.4 2.27-2.11 5.2-2.11 8.71v.95h20.68v-5.66ZM385.38 68.64h-22.63l-11.31 19.59h22.63l11.31 19.6 11.32-19.6-11.32-19.59z" class="cls-2"/><path d="M353.39 101.3c-14.41 0-26.13-11.72-26.13-26.13s11.72-26.13 26.13-26.13l8.95-18.72c-2.89-.57-5.88-.88-8.95-.88-25.25 0-45.72 20.47-45.72 45.72s20.47 45.72 45.72 45.72c10.07 0 19.37-3.26 26.93-8.77l-9.91-17.16c-4.58 3.94-10.52 6.33-17.02 6.33Z" class="cls-2"/><path d="M681.96 501.65H22.4l-22.4-56 22.4-56h659.56l22.4 56-22.4 56z" class="cls-3"/><path d="M139.18 567.43c0 .08.05.14.15.19 2.28 1.2 3.42 3.23 3.42 6.07 0 2.56-.88 4.47-2.65 5.72s-4.08 1.88-6.95 1.88h-9.98c-.21 0-.37-.06-.5-.19a.663.663 0 0 1-.19-.5v-25.5c0-.2.06-.37.19-.5s.29-.19.5-.19h9.68c3.12 0 5.48.59 7.08 1.77 1.6 1.18 2.4 3.09 2.4 5.72s-1 4.29-3 5.34c-.1.05-.15.12-.15.19Zm-10.33-7.3v4.69c0 .18.09.27.27.27h3.72c1.05 0 1.86-.22 2.42-.67.56-.45.84-1.08.84-1.9s-.28-1.5-.84-1.96-1.37-.69-2.42-.69h-3.72c-.18 0-.27.09-.27.27Zm6.68 14.96c.56-.47.84-1.16.84-2.05s-.28-1.54-.83-2.02c-.55-.47-1.35-.71-2.4-.71h-4.03c-.18 0-.27.09-.27.27v4.95c0 .18.09.27.27.27h4.03c1.02 0 1.82-.24 2.38-.71ZM166.03 559.67c-.13.13-.29.19-.5.19h-11.75c-.18 0-.27.09-.27.27v4.57c0 .18.09.27.27.27h7.41c.21 0 .37.06.5.19s.19.29.19.5v4.03c0 .21-.06.37-.19.5s-.29.19-.5.19h-7.41c-.18 0-.27.09-.27.27v4.92c0 .18.09.27.27.27h11.75c.2 0 .37.06.5.19s.19.29.19.5v4.07c0 .21-.06.37-.19.5s-.29.19-.5.19h-17.7c-.21 0-.37-.06-.5-.19a.663.663 0 0 1-.19-.5v-25.5c0-.2.06-.37.19-.5s.29-.19.5-.19h17.7c.2 0 .37.06.5.19s.19.29.19.5v4.07c0 .21-.06.37-.19.5ZM174.46 580.58c-1.55-.68-2.75-1.65-3.59-2.92s-1.27-2.73-1.27-4.4v-.5c0-.2.06-.37.19-.5s.29-.19.5-.19h4.88c.21 0 .37.05.5.13.13.09.19.2.19.33v.46c0 .82.42 1.55 1.25 2.19.83.64 1.9.96 3.21.96 1.13 0 1.96-.24 2.5-.73s.81-1.05.81-1.69c0-.72-.31-1.27-.94-1.65-.63-.38-1.75-.83-3.36-1.34l-.84-.27c-1.64-.54-3.07-1.12-4.3-1.75-1.23-.63-2.28-1.5-3.15-2.61s-1.31-2.49-1.31-4.13.42-2.98 1.25-4.17 1.98-2.11 3.46-2.75c1.47-.64 3.14-.96 5.01-.96 1.97 0 3.74.36 5.32 1.08 1.57.72 2.81 1.73 3.71 3.03.9 1.31 1.34 2.8 1.34 4.49v.31c0 .21-.06.37-.19.5s-.29.19-.5.19h-4.88c-.21 0-.37-.03-.5-.1a.3.3 0 0 1-.19-.29v-.35c0-.9-.4-1.69-1.19-2.38-.79-.69-1.86-1.04-3.19-1.04-1 0-1.78.21-2.34.61-.56.41-.84.99-.84 1.73 0 .56.18 1.03.54 1.4.36.37.92.72 1.67 1.04.75.32 1.91.74 3.48 1.25 1.79.61 3.19 1.15 4.19 1.61s1.94 1.21 2.82 2.25c.88 1.04 1.33 2.4 1.33 4.09s-.42 3.03-1.27 4.24c-.84 1.22-2.04 2.16-3.57 2.82-1.54.67-3.3 1-5.3 1s-3.85-.34-5.4-1.02ZM213.61 554.6c.13.13.19.29.19.5v4.11c0 .21-.06.37-.19.5s-.29.19-.5.19h-6.41c-.18 0-.27.09-.27.27v20.43c0 .21-.06.37-.19.5s-.29.19-.5.19h-4.99c-.21 0-.37-.06-.5-.19a.663.663 0 0 1-.19-.5v-20.43c0-.18-.09-.27-.27-.27h-6.18c-.21 0-.37-.06-.5-.19a.663.663 0 0 1-.19-.5v-4.11c0-.2.06-.37.19-.5s.29-.19.5-.19h19.51c.21 0 .37.06.5.19ZM230.37 580.58c-1.55-.68-2.75-1.65-3.59-2.92s-1.27-2.73-1.27-4.4v-.5c0-.2.06-.37.19-.5s.29-.19.5-.19h4.88c.21 0 .37.05.5.13.13.09.19.2.19.33v.46c0 .82.42 1.55 1.25 2.19.83.64 1.9.96 3.21.96 1.13 0 1.96-.24 2.5-.73s.81-1.05.81-1.69c0-.72-.31-1.27-.94-1.65-.63-.38-1.75-.83-3.36-1.34l-.84-.27c-1.64-.54-3.07-1.12-4.3-1.75-1.23-.63-2.28-1.5-3.15-2.61s-1.31-2.49-1.31-4.13.42-2.98 1.25-4.17 1.98-2.11 3.46-2.75c1.47-.64 3.14-.96 5.01-.96 1.97 0 3.74.36 5.32 1.08 1.57.72 2.81 1.73 3.71 3.03.9 1.31 1.34 2.8 1.34 4.49v.31c0 .21-.06.37-.19.5s-.29.19-.5.19h-4.88c-.21 0-.37-.03-.5-.1a.3.3 0 0 1-.19-.29v-.35c0-.9-.4-1.69-1.19-2.38-.79-.69-1.86-1.04-3.19-1.04-1 0-1.78.21-2.34.61-.56.41-.84.99-.84 1.73 0 .56.18 1.03.54 1.4.36.37.92.72 1.67 1.04.75.32 1.91.74 3.48 1.25 1.79.61 3.19 1.15 4.19 1.61s1.94 1.21 2.82 2.25c.88 1.04 1.33 2.4 1.33 4.09s-.42 3.03-1.27 4.24c-.84 1.22-2.04 2.16-3.57 2.82-1.54.67-3.3 1-5.3 1s-3.85-.34-5.4-1.02ZM254.52 580.47c-1.58-.83-2.8-2-3.67-3.51-.87-1.51-1.31-3.26-1.31-5.26v-7.68c0-1.95.44-3.67 1.31-5.16s2.09-2.66 3.67-3.49c1.57-.83 3.4-1.25 5.47-1.25s3.9.42 5.49 1.25c1.59.83 2.82 2 3.69 3.49s1.31 3.22 1.31 5.16v7.68c0 2-.44 3.75-1.31 5.26-.87 1.51-2.1 2.68-3.69 3.51-1.59.83-3.42 1.25-5.49 1.25s-3.9-.42-5.47-1.25Zm8.45-5.4c.75-.79 1.13-1.86 1.13-3.19v-7.95c0-1.31-.38-2.36-1.13-3.17-.76-.81-1.75-1.21-2.98-1.21s-2.18.4-2.94 1.21c-.76.81-1.13 1.86-1.13 3.17v7.95c0 1.33.38 2.39 1.13 3.19.75.79 1.73 1.19 2.94 1.19s2.22-.4 2.98-1.19ZM293.63 559.67c-.13.13-.29.19-.5.19h-11.71c-.18 0-.27.09-.27.27v4.57c0 .18.09.27.27.27h7.41c.21 0 .37.06.5.19s.19.29.19.5v4.03c0 .21-.06.37-.19.5s-.29.19-.5.19h-7.41c-.18 0-.27.09-.27.27v9.95c0 .21-.06.37-.19.5s-.29.19-.5.19h-4.99c-.21 0-.37-.06-.5-.19a.663.663 0 0 1-.19-.5v-25.5c0-.2.06-.37.19-.5s.29-.19.5-.19h17.66c.21 0 .37.06.5.19s.19.29.19.5v4.07c0 .21-.06.37-.19.5ZM316.83 554.6c.13.13.19.29.19.5v4.11c0 .21-.06.37-.19.5s-.29.19-.5.19h-6.41c-.18 0-.27.09-.27.27v20.43c0 .21-.06.37-.19.5s-.29.19-.5.19h-4.99c-.21 0-.37-.06-.5-.19a.663.663 0 0 1-.19-.5v-20.43c0-.18-.09-.27-.27-.27h-6.18c-.21 0-.37-.06-.5-.19a.663.663 0 0 1-.19-.5v-4.11c0-.2.06-.37.19-.5s.29-.19.5-.19h19.51c.21 0 .37.06.5.19ZM326.04 580.72l-7.03-25.54a.474.474 0 0 1-.04-.23c0-.36.2-.54.61-.54h5.38c.21 0 .38.06.52.17s.22.26.25.44l3.23 13.56c.05.1.11.15.17.15s.11-.05.13-.15l3.11-13.56c.08-.41.33-.61.77-.61h4.57c.41 0 .67.21.77.61l3.38 13.56c.05.1.11.15.17.15s.11-.05.13-.15l3-13.56a.68.68 0 0 1 .25-.44c.14-.12.31-.17.52-.17h5.22c.23 0 .4.06.52.19s.15.32.1.58l-6.38 25.5c-.1.41-.36.61-.77.61h-5.11c-.21 0-.38-.06-.52-.17a.705.705 0 0 1-.25-.44l-3.23-14.4c-.03-.13-.08-.19-.15-.19s-.13.06-.15.19l-2.92 14.4c-.08.41-.32.61-.73.61h-4.76c-.41 0-.67-.19-.77-.58ZM367.79 580.72l-.88-3.15c-.03-.15-.13-.23-.31-.23h-8.68c-.15 0-.26.08-.31.23l-.88 3.15c-.1.38-.36.58-.77.58h-5.41c-.26 0-.44-.07-.54-.21-.1-.14-.12-.33-.04-.56l8.06-25.54c.13-.38.4-.58.81-.58h6.8c.44 0 .7.19.81.58l8.1 25.54c.03.05.04.14.04.27 0 .33-.21.5-.61.5h-5.42c-.41 0-.67-.19-.77-.58Zm-8.6-8.53c0 .15.08.23.23.23h5.68c.1 0 .17-.03.21-.1.04-.06.04-.13.02-.21l-2.92-10.21c-.03-.13-.07-.19-.13-.19s-.12.06-.17.19l-2.92 10.21v.08ZM392.21 580.75l-4.46-9.98c-.05-.13-.15-.19-.31-.19h-2.38c-.18 0-.27.09-.27.27v9.75c0 .21-.06.37-.19.5s-.29.19-.5.19h-4.99c-.21 0-.37-.06-.5-.19a.663.663 0 0 1-.19-.5v-25.5c0-.2.06-.37.19-.5s.29-.19.5-.19h11.17c1.69 0 3.17.35 4.45 1.04 1.28.69 2.27 1.67 2.98 2.94.7 1.27 1.06 2.72 1.06 4.36s-.42 3.16-1.25 4.42c-.83 1.25-1.99 2.16-3.48 2.73-.18.08-.23.21-.15.38l4.92 10.21.08.31c0 .33-.21.5-.61.5h-5.26c-.38 0-.65-.18-.81-.54Zm-7.41-20.62v5.3c0 .18.09.27.27.27h4.19c.95 0 1.71-.26 2.3-.79.59-.52.88-1.22.88-2.09s-.29-1.61-.88-2.15c-.59-.54-1.36-.81-2.3-.81h-4.19c-.18 0-.27.09-.27.27ZM421.85 559.67c-.13.13-.29.19-.5.19H409.6c-.18 0-.27.09-.27.27v4.57c0 .18.09.27.27.27h7.41c.21 0 .37.06.5.19s.19.29.19.5v4.03c0 .21-.06.37-.19.5s-.29.19-.5.19h-7.41c-.18 0-.27.09-.27.27v4.92c0 .18.09.27.27.27h11.75c.2 0 .37.06.5.19s.19.29.19.5v4.07c0 .21-.06.37-.19.5s-.29.19-.5.19h-17.7c-.21 0-.37-.06-.5-.19a.663.663 0 0 1-.19-.5v-25.5c0-.2.06-.37.19-.5s.29-.19.5-.19h17.7c.2 0 .37.06.5.19s.19.29.19.5v4.07c0 .21-.06.37-.19.5ZM451.69 580.72l-.88-3.15c-.03-.15-.13-.23-.31-.23h-8.68c-.15 0-.26.08-.31.23l-.88 3.15c-.1.38-.36.58-.77.58h-5.41c-.26 0-.44-.07-.54-.21-.1-.14-.12-.33-.04-.56l8.06-25.54c.13-.38.4-.58.81-.58h6.8c.44 0 .7.19.81.58l8.1 25.54c.03.05.04.14.04.27 0 .33-.21.5-.61.5h-5.42c-.41 0-.67-.19-.77-.58Zm-8.6-8.53c0 .15.08.23.23.23H449c.1 0 .17-.03.21-.1.04-.06.04-.13.02-.21l-2.92-10.21c-.03-.13-.07-.19-.13-.19s-.12.06-.17.19l-2.92 10.21v.08ZM462.67 580.72l-7.03-25.54a.474.474 0 0 1-.04-.23c0-.36.2-.54.61-.54h5.38c.21 0 .38.06.52.17s.22.26.25.44l3.23 13.56c.05.1.11.15.17.15s.11-.05.13-.15l3.11-13.56c.08-.41.33-.61.77-.61h4.57c.41 0 .67.21.77.61l3.38 13.56c.05.1.11.15.17.15s.11-.05.13-.15l3-13.56a.68.68 0 0 1 .25-.44c.14-.12.31-.17.52-.17h5.22c.23 0 .4.06.52.19s.15.32.1.58l-6.38 25.5c-.1.41-.36.61-.77.61h-5.11c-.21 0-.38-.06-.52-.17a.705.705 0 0 1-.25-.44l-3.23-14.4c-.03-.13-.08-.19-.15-.19s-.13.06-.15.19l-2.92 14.4c-.08.41-.32.61-.73.61h-4.76c-.41 0-.67-.19-.77-.58ZM504.41 580.72l-.88-3.15c-.03-.15-.13-.23-.31-.23h-8.68c-.15 0-.26.08-.31.23l-.88 3.15c-.1.38-.36.58-.77.58h-5.41c-.26 0-.44-.07-.54-.21-.1-.14-.12-.33-.04-.56l8.06-25.54c.13-.38.4-.58.81-.58h6.8c.44 0 .7.19.81.58l8.1 25.54c.03.05.04.14.04.27 0 .33-.21.5-.61.5h-5.42c-.41 0-.67-.19-.77-.58Zm-8.6-8.53c0 .15.08.23.23.23h5.68c.1 0 .17-.03.21-.1.04-.06.04-.13.02-.21l-2.92-10.21c-.03-.13-.07-.19-.13-.19s-.12.06-.17.19l-2.92 10.21v.08ZM528.84 580.75l-4.46-9.98c-.05-.13-.15-.19-.31-.19h-2.38c-.18 0-.27.09-.27.27v9.75c0 .21-.06.37-.19.5s-.29.19-.5.19h-4.99c-.21 0-.37-.06-.5-.19a.663.663 0 0 1-.19-.5v-25.5c0-.2.06-.37.19-.5s.29-.19.5-.19h11.17c1.69 0 3.17.35 4.45 1.04 1.28.69 2.27 1.67 2.98 2.94.7 1.27 1.06 2.72 1.06 4.36s-.42 3.16-1.25 4.42c-.83 1.25-1.99 2.16-3.48 2.73-.18.08-.23.21-.15.38l4.92 10.21.08.31c0 .33-.21.5-.61.5h-5.26c-.38 0-.65-.18-.81-.54Zm-7.41-20.62v5.3c0 .18.09.27.27.27h4.19c.95 0 1.71-.26 2.3-.79.59-.52.88-1.22.88-2.09s-.29-1.61-.88-2.15c-.59-.54-1.36-.81-2.3-.81h-4.19c-.18 0-.27.09-.27.27ZM539.78 581.1a.663.663 0 0 1-.19-.5v-25.5c0-.2.06-.37.19-.5s.29-.19.5-.19h9.56c2 0 3.76.35 5.3 1.04 1.54.69 2.73 1.68 3.57 2.96.84 1.28 1.27 2.75 1.27 4.42v10.06c0 1.66-.42 3.14-1.27 4.42-.84 1.28-2.04 2.27-3.57 2.96-1.54.69-3.3 1.04-5.3 1.04h-9.56c-.21 0-.37-.06-.5-.19Zm6.45-5.26h3.88c1.02 0 1.86-.36 2.5-1.09.64-.73.97-1.71 1-2.94v-7.91c0-1.23-.33-2.21-.98-2.94-.65-.73-1.5-1.09-2.55-1.09h-3.84c-.18 0-.27.09-.27.27v15.44c0 .18.09.27.27.27ZM568.49 580.58c-1.55-.68-2.75-1.65-3.59-2.92s-1.27-2.73-1.27-4.4v-.5c0-.2.06-.37.19-.5s.29-.19.5-.19h4.88c.21 0 .37.05.5.13.13.09.19.2.19.33v.46c0 .82.42 1.55 1.25 2.19.83.64 1.9.96 3.21.96 1.13 0 1.96-.24 2.5-.73s.81-1.05.81-1.69c0-.72-.31-1.27-.94-1.65-.63-.38-1.75-.83-3.36-1.34l-.84-.27c-1.64-.54-3.07-1.12-4.3-1.75-1.23-.63-2.28-1.5-3.15-2.61s-1.31-2.49-1.31-4.13.42-2.98 1.25-4.17 1.98-2.11 3.46-2.75c1.47-.64 3.14-.96 5.01-.96 1.97 0 3.74.36 5.32 1.08 1.57.72 2.81 1.73 3.71 3.03.9 1.31 1.34 2.8 1.34 4.49v.31c0 .21-.06.37-.19.5s-.29.19-.5.19h-4.88c-.21 0-.37-.03-.5-.1a.3.3 0 0 1-.19-.29v-.35c0-.9-.4-1.69-1.19-2.38-.79-.69-1.86-1.04-3.19-1.04-1 0-1.78.21-2.34.61-.56.41-.84.99-.84 1.73 0 .56.18 1.03.54 1.4.36.37.92.72 1.67 1.04.75.32 1.91.74 3.48 1.25 1.79.61 3.19 1.15 4.19 1.61s1.94 1.21 2.82 2.25c.88 1.04 1.33 2.4 1.33 4.09s-.42 3.03-1.27 4.24c-.84 1.22-2.04 2.16-3.57 2.82-1.54.67-3.3 1-5.3 1s-3.85-.34-5.4-1.02ZM286.68 662.47c.05.1.15.15.31.15h19.48c.25 0 .47.09.65.27.18.18.27.4.27.65v9.01c0 .26-.09.47-.27.65-.18.18-.39.27-.65.27h-35.83c-.26 0-.47-.09-.65-.27a.875.875 0 0 1-.27-.65v-8.48c0-.46.15-.84.46-1.15 3.06-2.85 7.1-6.95 12.15-12.3l4.58-4.81c4.63-4.79 6.95-8.28 6.95-10.47 0-1.48-.55-2.7-1.64-3.67-1.1-.97-2.51-1.45-4.24-1.45s-3.13.48-4.2 1.45c-1.07.97-1.6 2.24-1.6 3.82v1.83c0 .26-.09.47-.27.65-.18.18-.39.27-.65.27h-11c-.26 0-.47-.09-.65-.27a.875.875 0 0 1-.27-.65v-3.82c.2-2.85 1.15-5.35 2.83-7.49 1.68-2.14 3.9-3.78 6.65-4.93 2.75-1.15 5.81-1.72 9.17-1.72 3.77 0 7.07.7 9.89 2.1 2.83 1.4 4.99 3.3 6.49 5.69 1.5 2.39 2.25 5.04 2.25 7.94 0 2.09-.51 4.2-1.53 6.34-1.02 2.14-2.55 4.41-4.58 6.8a75.466 75.466 0 0 1-4.81 5.27c-1.78 1.78-4.25 4.18-7.41 7.18l-1.53 1.45c-.1.1-.13.2-.08.31ZM318 669.46c-3.36-3.28-5.04-7.75-5.04-13.41v-18.64c0-5.6 1.68-10.01 5.04-13.22 3.36-3.21 7.97-4.81 13.83-4.81s10.49 1.62 13.9 4.85c3.41 3.23 5.12 7.63 5.12 13.18v18.64c0 5.65-1.71 10.12-5.12 13.41-3.41 3.28-8.05 4.93-13.9 4.93s-10.46-1.64-13.83-4.93Zm18.45-7.79c1.15-1.2 1.72-2.84 1.72-4.93v-19.78c0-2.09-.57-3.73-1.72-4.93-1.15-1.2-2.69-1.8-4.62-1.8s-3.39.6-4.51 1.8c-1.12 1.2-1.68 2.84-1.68 4.93v19.78c0 2.09.55 3.73 1.64 4.93 1.09 1.2 2.61 1.8 4.54 1.8s3.48-.6 4.62-1.8ZM373.68 662.47c.05.1.15.15.31.15h19.48c.25 0 .47.09.65.27.18.18.27.4.27.65v9.01c0 .26-.09.47-.27.65-.18.18-.39.27-.65.27h-35.83c-.26 0-.47-.09-.65-.27a.875.875 0 0 1-.27-.65v-8.48c0-.46.15-.84.46-1.15 3.06-2.85 7.1-6.95 12.15-12.3l4.58-4.81c4.63-4.79 6.95-8.28 6.95-10.47 0-1.48-.55-2.7-1.64-3.67-1.1-.97-2.51-1.45-4.24-1.45s-3.13.48-4.2 1.45c-1.07.97-1.6 2.24-1.6 3.82v1.83c0 .26-.09.47-.27.65-.18.18-.39.27-.65.27h-11c-.26 0-.47-.09-.65-.27a.875.875 0 0 1-.27-.65v-3.82c.2-2.85 1.15-5.35 2.83-7.49 1.68-2.14 3.9-3.78 6.65-4.93 2.75-1.15 5.81-1.72 9.17-1.72 3.77 0 7.07.7 9.89 2.1 2.83 1.4 4.99 3.3 6.49 5.69 1.5 2.39 2.25 5.04 2.25 7.94 0 2.09-.51 4.2-1.53 6.34-1.02 2.14-2.55 4.41-4.58 6.8a75.466 75.466 0 0 1-4.81 5.27c-1.78 1.78-4.25 4.18-7.41 7.18l-1.53 1.45c-.1.1-.13.2-.08.31ZM435.02 655.67c0 2.75-.51 5.32-1.53 7.72-1.32 3.31-3.49 5.92-6.49 7.83-3.01 1.91-6.54 2.86-10.62 2.86s-7.49-.98-10.54-2.94c-3.06-1.96-5.27-4.62-6.65-7.98-.82-2.04-1.3-4.28-1.45-6.72 0-.61.31-.92.92-.92h11c.61 0 .94.31.99.92.1 1.27.41 2.5.92 3.67.41 1.02 1.02 1.8 1.83 2.33s1.78.8 2.9.8c2.14 0 3.74-.97 4.81-2.9.71-1.27 1.07-2.95 1.07-5.04s-.36-3.82-1.07-5.35c-1.07-1.88-2.7-2.83-4.89-2.83-.56 0-1.18.19-1.87.57-.69.38-1.57.95-2.64 1.72-.26.15-.46.23-.61.23-.3 0-.53-.15-.69-.46l-5.42-7.64c-.15-.25-.23-.46-.23-.61 0-.31.13-.53.38-.69l11.76-8.94c.1-.1.14-.2.11-.31-.03-.1-.11-.15-.27-.15h-16.73c-.26 0-.47-.09-.65-.27a.875.875 0 0 1-.27-.65v-9.01c0-.25.09-.47.27-.65.18-.18.39-.27.65-.27h33.31c.25 0 .47.09.65.27.18.18.27.4.27.65v10.16c0 .46-.18.84-.54 1.15l-9.24 7.26c-.1.1-.14.2-.11.31.02.1.11.18.27.23 4.07 1.07 7.03 3.67 8.86 7.79 1.02 2.44 1.53 5.07 1.53 7.87Z" class="cls-5"/><path d="M72.63 432.31a.62.62 0 0 1-.46.19H54.51c-.18 0-.27.09-.27.27v8.37c0 .18.09.27.27.27h11.61c.18 0 .33.06.46.19s.19.28.19.46v5.24c0 .18-.06.33-.19.46a.62.62 0 0 1-.46.19H54.51c-.18 0-.27.09-.27.27v14.9c0 .18-.06.33-.19.46a.62.62 0 0 1-.46.19h-6.32a.62.62 0 0 1-.46-.19.62.62 0 0 1-.19-.46v-36.5c0-.18.06-.33.19-.46s.28-.19.46-.19h24.89c.18 0 .33.06.46.19s.19.28.19.46v5.24c0 .18-.06.33-.19.46ZM91.07 436.79c1.84.81 3.27 1.92 4.29 3.32a7.742 7.742 0 0 1 1.54 4.7v18.31c0 .18-.06.33-.19.46a.62.62 0 0 1-.46.19h-6.32a.62.62 0 0 1-.46-.19.62.62 0 0 1-.19-.46v-1.78c0-.11-.04-.18-.11-.22-.07-.04-.14 0-.22.11-1.51 1.98-3.94 2.97-7.29 2.97-2.81 0-5.08-.68-6.8-2.05-1.73-1.37-2.59-3.38-2.59-6.05s.97-4.92 2.92-6.45c1.94-1.53 4.72-2.29 8.32-2.29h5.51c.18 0 .27-.09.27-.27v-1.19c0-1.19-.36-2.11-1.08-2.78-.72-.67-1.8-1-3.24-1-1.12 0-2.04.2-2.78.59-.74.4-1.21.95-1.43 1.67-.11.4-.34.58-.7.54l-6.53-.86c-.43-.07-.63-.23-.59-.49.14-1.51.75-2.88 1.81-4.1 1.06-1.22 2.47-2.18 4.21-2.86 1.75-.68 3.7-1.03 5.86-1.03 2.34 0 4.43.4 6.26 1.21Zm-3.4 20.49c1.08-.83 1.62-1.89 1.62-3.19v-1.94c0-.18-.09-.27-.27-.27h-3.89c-1.62 0-2.89.31-3.81.92-.92.61-1.38 1.48-1.38 2.59 0 .97.34 1.74 1.03 2.29.68.56 1.6.84 2.75.84 1.55 0 2.86-.41 3.94-1.24ZM107 463.12c-1.8-.68-3.2-1.64-4.19-2.86-.99-1.22-1.48-2.61-1.48-4.16v-.54c0-.18.06-.33.19-.46s.28-.19.46-.19h5.99c.18 0 .33.06.46.19s.19.28.19.46v.05c0 .79.44 1.47 1.32 2.02.88.56 1.99.84 3.32.84 1.22 0 2.21-.24 2.97-.73s1.13-1.09 1.13-1.81c0-.65-.32-1.13-.97-1.46-.65-.32-1.71-.67-3.19-1.03-1.69-.43-3.02-.85-4-1.24-2.3-.79-4.14-1.76-5.51-2.92-1.37-1.15-2.05-2.81-2.05-4.97 0-2.66 1.03-4.78 3.1-6.35 2.07-1.57 4.81-2.35 8.24-2.35 2.3 0 4.32.37 6.05 1.11 1.73.74 3.07 1.77 4.02 3.1.95 1.33 1.43 2.84 1.43 4.54 0 .18-.06.33-.19.46a.62.62 0 0 1-.46.19h-5.78a.62.62 0 0 1-.46-.19.62.62 0 0 1-.19-.46c0-.79-.4-1.46-1.21-2-.81-.54-1.88-.81-3.21-.81-1.19 0-2.16.22-2.92.65-.76.43-1.13 1.03-1.13 1.78s.37 1.26 1.11 1.62c.74.36 1.97.74 3.7 1.13.4.11.85.23 1.35.35.5.13 1.04.28 1.62.46 2.56.76 4.57 1.73 6.05 2.92 1.48 1.19 2.21 2.92 2.21 5.18 0 2.66-1.05 4.74-3.16 6.24-2.11 1.49-4.94 2.24-8.5 2.24-2.41 0-4.52-.34-6.32-1.03ZM145.04 441.92a.62.62 0 0 1-.46.19h-5.18c-.18 0-.27.09-.27.27v11.45c0 1.19.24 2.07.73 2.65.49.58 1.27.86 2.35.86h1.78c.18 0 .33.06.46.19s.19.28.19.46v5.13c0 .4-.22.63-.65.7-1.51.07-2.59.11-3.24.11-2.99 0-5.22-.49-6.7-1.49-1.48-.99-2.23-2.85-2.27-5.59v-14.47c0-.18-.09-.27-.27-.27h-3.08a.62.62 0 0 1-.46-.19.62.62 0 0 1-.19-.46v-4.81c0-.18.06-.33.19-.46s.28-.19.46-.19h3.08c.18 0 .27-.09.27-.27v-6.43c0-.18.06-.33.19-.46a.62.62 0 0 1 .46-.19h6.05c.18 0 .33.06.46.19s.19.28.19.46v6.43c0 .18.09.27.27.27h5.18c.18 0 .33.06.46.19s.19.28.19.46v4.81c0 .18-.06.33-.19.46ZM174.23 451.62c-.04.43-.27.65-.7.65h-16.69c-.22 0-.29.09-.22.27.11.72.31 1.44.59 2.16.94 2.02 2.84 3.02 5.72 3.02 2.3-.04 4.12-.97 5.45-2.81.14-.22.31-.32.49-.32.11 0 .23.07.38.22l3.89 3.83c.18.18.27.34.27.49 0 .07-.07.22-.22.43-1.19 1.48-2.72 2.62-4.59 3.43-1.87.81-3.92 1.22-6.16 1.22-3.1 0-5.72-.7-7.86-2.11-2.14-1.4-3.68-3.37-4.62-5.89-.76-1.8-1.13-4.16-1.13-7.07 0-1.98.27-3.73.81-5.24.83-2.56 2.28-4.59 4.35-6.1 2.07-1.51 4.53-2.27 7.37-2.27 3.6 0 6.49 1.04 8.67 3.13 2.18 2.09 3.5 4.88 3.97 8.37.22 1.37.29 2.9.22 4.59Zm-17.28-6.32c-.14.47-.27 1.04-.38 1.73 0 .18.09.27.27.27h9.34c.22 0 .29-.09.22-.27-.18-1.04-.27-1.55-.27-1.51-.32-1.08-.89-1.92-1.7-2.51-.81-.59-1.81-.89-3-.89-2.27 0-3.76 1.06-4.48 3.19ZM183.3 463.12c-1.8-.68-3.2-1.64-4.19-2.86-.99-1.22-1.48-2.61-1.48-4.16v-.54c0-.18.06-.33.19-.46s.28-.19.46-.19h5.99c.18 0 .33.06.46.19s.19.28.19.46v.05c0 .79.44 1.47 1.32 2.02.88.56 1.99.84 3.32.84 1.22 0 2.21-.24 2.97-.73s1.13-1.09 1.13-1.81c0-.65-.32-1.13-.97-1.46-.65-.32-1.71-.67-3.19-1.03-1.69-.43-3.02-.85-4-1.24-2.3-.79-4.14-1.76-5.51-2.92-1.37-1.15-2.05-2.81-2.05-4.97 0-2.66 1.03-4.78 3.1-6.35 2.07-1.57 4.81-2.35 8.24-2.35 2.3 0 4.32.37 6.05 1.11 1.73.74 3.07 1.77 4.02 3.1.95 1.33 1.43 2.84 1.43 4.54 0 .18-.06.33-.19.46a.62.62 0 0 1-.46.19h-5.78a.62.62 0 0 1-.46-.19.62.62 0 0 1-.19-.46c0-.79-.4-1.46-1.21-2-.81-.54-1.88-.81-3.21-.81-1.19 0-2.16.22-2.92.65-.76.43-1.13 1.03-1.13 1.78s.37 1.26 1.11 1.62c.74.36 1.97.74 3.7 1.13.4.11.85.23 1.35.35.5.13 1.04.28 1.62.46 2.56.76 4.57 1.73 6.05 2.92 1.48 1.19 2.21 2.92 2.21 5.18 0 2.66-1.05 4.74-3.16 6.24-2.11 1.49-4.94 2.24-8.5 2.24-2.41 0-4.52-.34-6.32-1.03ZM221.34 441.92a.62.62 0 0 1-.46.19h-5.18c-.18 0-.27.09-.27.27v11.45c0 1.19.24 2.07.73 2.65.49.58 1.27.86 2.35.86h1.78c.18 0 .33.06.46.19s.19.28.19.46v5.13c0 .4-.22.63-.65.7-1.51.07-2.59.11-3.24.11-2.99 0-5.22-.49-6.7-1.49-1.48-.99-2.23-2.85-2.27-5.59v-14.47c0-.18-.09-.27-.27-.27h-3.08a.62.62 0 0 1-.46-.19.62.62 0 0 1-.19-.46v-4.81c0-.18.06-.33.19-.46s.28-.19.46-.19h3.08c.18 0 .27-.09.27-.27v-6.43c0-.18.06-.33.19-.46a.62.62 0 0 1 .46-.19h6.05c.18 0 .33.06.46.19s.19.28.19.46v6.43c0 .18.09.27.27.27h5.18c.18 0 .33.06.46.19s.19.28.19.46v4.81c0 .18-.06.33-.19.46ZM243.35 462.52c-2.12-1.12-3.77-2.67-4.94-4.67-1.17-2-1.75-4.31-1.75-6.94v-12.1c0-2.63.58-4.95 1.75-6.97 1.17-2.02 2.82-3.57 4.94-4.67 2.12-1.1 4.57-1.65 7.34-1.65s5.16.54 7.26 1.62c2.11 1.08 3.74 2.55 4.91 4.4 1.17 1.85 1.75 3.92 1.75 6.18v.38c0 .18-.06.33-.19.46s-.28.19-.46.19h-6.32a.62.62 0 0 1-.46-.19.62.62 0 0 1-.19-.46v-.16c0-1.66-.58-3.05-1.73-4.19-1.15-1.13-2.68-1.7-4.59-1.7s-3.5.6-4.67 1.81-1.76 2.78-1.76 4.73v12.53c0 1.94.63 3.52 1.89 4.73 1.26 1.21 2.86 1.81 4.81 1.81s3.37-.49 4.48-1.48c1.12-.99 1.67-2.37 1.67-4.13v-2.43c0-.18-.09-.27-.27-.27h-6.05a.62.62 0 0 1-.46-.19.62.62 0 0 1-.19-.46v-4.97c0-.18.06-.33.19-.46a.62.62 0 0 1 .46-.19h13.18c.18 0 .33.06.46.19s.19.28.19.46v7.13c0 2.74-.58 5.11-1.73 7.13-1.15 2.02-2.78 3.56-4.89 4.62s-4.55 1.59-7.32 1.59-5.22-.56-7.34-1.67ZM286.87 436.39c.29.14.4.41.32.81l-1.13 6.16c-.04.43-.29.56-.76.38-.54-.18-1.17-.27-1.89-.27-.29 0-.68.04-1.19.11-1.3.11-2.39.59-3.29 1.43-.9.85-1.35 1.97-1.35 3.38v14.74c0 .18-.06.33-.19.46a.62.62 0 0 1-.46.19h-6.32a.62.62 0 0 1-.46-.19.62.62 0 0 1-.19-.46v-26.46c0-.18.06-.33.19-.46a.62.62 0 0 1 .46-.19h6.32c.18 0 .33.06.46.19.12.13.19.28.19.46v2.05c0 .11.04.18.11.22.07.04.12.02.16-.05 1.48-2.16 3.46-3.24 5.94-3.24 1.3 0 2.32.25 3.08.76ZM294.43 461.82c-2.16-1.58-3.64-3.74-4.43-6.48-.5-1.69-.76-3.53-.76-5.51 0-2.12.25-4.03.76-5.72.83-2.66 2.32-4.75 4.48-6.26 2.16-1.51 4.75-2.27 7.78-2.27s5.47.75 7.56 2.24c2.09 1.49 3.56 3.57 4.43 6.24.58 1.8.86 3.69.86 5.67s-.25 3.76-.76 5.45c-.79 2.81-2.26 5.01-4.4 6.61-2.14 1.6-4.73 2.4-7.75 2.4s-5.62-.79-7.78-2.38Zm10.8-5.24c.83-.72 1.42-1.71 1.78-2.97.29-1.15.43-2.41.43-3.78 0-1.51-.14-2.79-.43-3.83-.4-1.22-1.01-2.18-1.84-2.86-.83-.68-1.84-1.03-3.02-1.03s-2.24.34-3.05 1.03c-.81.68-1.4 1.64-1.75 2.86-.29.86-.43 2.14-.43 3.83s.12 2.88.38 3.78c.36 1.26.96 2.25 1.81 2.97.85.72 1.88 1.08 3.11 1.08s2.2-.36 3.02-1.08ZM324.67 463.23l-7.78-26.51-.05-.22c0-.36.2-.54.59-.54h6.53c.4 0 .65.18.76.54l3.89 16.31c.04.11.09.16.16.16s.12-.05.16-.16l4.05-16.31c.11-.36.36-.54.76-.54h5.67c.4 0 .65.18.76.54l4.27 16.36c.04.11.09.16.16.16s.13-.05.16-.16l4.21-16.36c.11-.36.36-.54.76-.54l6.48.11c.22 0 .37.06.46.19.09.13.12.3.08.51l-7.88 26.46c-.11.36-.34.54-.7.54h-6.53c-.4 0-.65-.18-.76-.54l-4.16-14.47c-.04-.11-.09-.16-.16-.16s-.13.05-.16.16l-3.67 14.47c-.11.36-.36.54-.76.54h-6.53c-.4 0-.65-.18-.76-.54ZM361.85 431.66c-.81-.81-1.21-1.83-1.21-3.05s.4-2.29 1.19-3.08c.79-.79 1.82-1.19 3.08-1.19s2.29.4 3.08 1.19c.79.79 1.19 1.82 1.19 3.08s-.4 2.24-1.21 3.05c-.81.81-1.83 1.21-3.05 1.21s-2.24-.4-3.05-1.21Zm-.65 31.91a.62.62 0 0 1-.19-.46V436.6c0-.18.06-.33.19-.46a.62.62 0 0 1 .46-.19h6.32c.18 0 .33.06.46.19s.19.28.19.46v26.51c0 .18-.06.33-.19.46a.62.62 0 0 1-.46.19h-6.32a.62.62 0 0 1-.46-.19ZM396 438.22c1.76 1.76 2.65 4.16 2.65 7.18v17.71c0 .18-.06.33-.19.46a.62.62 0 0 1-.46.19h-6.32a.62.62 0 0 1-.46-.19.62.62 0 0 1-.19-.46v-16.15c0-1.44-.41-2.61-1.21-3.51-.81-.9-1.88-1.35-3.21-1.35s-2.4.45-3.21 1.35c-.81.9-1.21 2.07-1.21 3.51v16.15c0 .18-.06.33-.19.46a.62.62 0 0 1-.46.19h-6.32a.62.62 0 0 1-.46-.19.62.62 0 0 1-.19-.46v-26.46c0-.18.06-.33.19-.46a.62.62 0 0 1 .46-.19h6.32c.18 0 .33.06.46.19.12.13.19.28.19.46v1.89c0 .11.04.18.11.22.07.04.12.02.16-.05 1.48-2.09 3.67-3.13 6.59-3.13s5.2.88 6.97 2.65ZM421.25 436.2a.62.62 0 0 1 .46-.19h6.32c.18 0 .33.06.46.19.12.13.19.28.19.46v24.62c0 4.72-1.36 8.08-4.08 10.1-2.72 2.02-6.22 3.02-10.5 3.02-1.26 0-2.66-.09-4.21-.27-.36-.04-.54-.27-.54-.7l.22-5.56c0-.47.25-.67.76-.59 1.3.22 2.48.32 3.56.32 2.3 0 4.08-.5 5.32-1.51 1.24-1.01 1.86-2.63 1.86-4.86 0-.11-.04-.17-.11-.19-.07-.02-.14 0-.22.08-1.37 1.48-3.37 2.21-5.99 2.21-2.34 0-4.49-.57-6.45-1.7s-3.36-2.96-4.19-5.48c-.54-1.66-.81-3.8-.81-6.43 0-2.81.32-5.09.97-6.86.76-2.2 2.03-3.96 3.83-5.29 1.8-1.33 3.89-2 6.26-2 2.77 0 4.9.83 6.37 2.48.07.07.14.1.22.08.07-.02.11-.08.11-.19v-1.3c0-.18.06-.33.19-.46Zm-.19 13.47c0-1.12-.04-1.98-.11-2.59a8.56 8.56 0 0 0-.38-1.73c-.32-.97-.86-1.75-1.62-2.35-.76-.59-1.69-.89-2.81-.89s-2 .3-2.75.89c-.76.59-1.31 1.38-1.67 2.35-.5 1.08-.76 2.54-.76 4.37 0 2.02.22 3.46.65 4.32.32.97.89 1.76 1.7 2.35.81.59 1.77.89 2.89.89s2.11-.3 2.86-.89a4.54 4.54 0 0 0 1.57-2.29c.29-1.08.43-2.56.43-4.43ZM467.28 427.37c1.8.97 3.19 2.35 4.18 4.13.99 1.78 1.49 3.83 1.49 6.13s-.51 4.27-1.54 5.99-2.47 3.07-4.32 4.02c-1.85.95-3.99 1.43-6.4 1.43h-7.67c-.18 0-.27.09-.27.27v13.77c0 .18-.06.33-.19.46a.62.62 0 0 1-.46.19h-6.32a.62.62 0 0 1-.46-.19.62.62 0 0 1-.19-.46v-36.56c0-.18.06-.33.19-.46a.62.62 0 0 1 .46-.19h15.23c2.38 0 4.46.49 6.26 1.46Zm-3.4 14.17c1.01-.95 1.51-2.2 1.51-3.75s-.5-2.86-1.51-3.83c-1.01-.97-2.34-1.46-4-1.46h-6.86c-.18 0-.27.09-.27.27v9.94c0 .18.09.27.27.27h6.86c1.66 0 2.99-.48 4-1.43ZM494.07 436.39c.29.14.4.41.32.81l-1.13 6.16c-.04.43-.29.56-.76.38-.54-.18-1.17-.27-1.89-.27-.29 0-.68.04-1.19.11-1.3.11-2.39.59-3.29 1.43-.9.85-1.35 1.97-1.35 3.38v14.74c0 .18-.06.33-.19.46a.62.62 0 0 1-.46.19h-6.32a.62.62 0 0 1-.46-.19.62.62 0 0 1-.19-.46v-26.46c0-.18.06-.33.19-.46a.62.62 0 0 1 .46-.19h6.32c.18 0 .33.06.46.19.12.13.19.28.19.46v2.05c0 .11.04.18.11.22.07.04.12.02.16-.05 1.48-2.16 3.46-3.24 5.94-3.24 1.3 0 2.32.25 3.08.76ZM501.63 461.82c-2.16-1.58-3.64-3.74-4.43-6.48-.5-1.69-.76-3.53-.76-5.51 0-2.12.25-4.03.76-5.72.83-2.66 2.32-4.75 4.48-6.26 2.16-1.51 4.75-2.27 7.78-2.27s5.47.75 7.56 2.24c2.09 1.49 3.56 3.57 4.43 6.24.58 1.8.86 3.69.86 5.67s-.25 3.76-.76 5.45c-.79 2.81-2.26 5.01-4.4 6.61-2.14 1.6-4.73 2.4-7.75 2.4s-5.62-.79-7.78-2.38Zm10.8-5.24c.83-.72 1.42-1.71 1.78-2.97.29-1.15.43-2.41.43-3.78 0-1.51-.14-2.79-.43-3.83-.4-1.22-1.01-2.18-1.84-2.86-.83-.68-1.84-1.03-3.02-1.03s-2.24.34-3.05 1.03c-.81.68-1.4 1.64-1.75 2.86-.29.86-.43 2.14-.43 3.83s.12 2.88.38 3.78c.36 1.26.96 2.25 1.81 2.97.85.72 1.88 1.08 3.11 1.08s2.2-.36 3.02-1.08ZM544.64 426.16a.62.62 0 0 1 .46-.19h6.32c.18 0 .33.06.46.19s.19.28.19.46v36.5c0 .18-.06.33-.19.46a.62.62 0 0 1-.46.19h-6.32a.62.62 0 0 1-.46-.19.62.62 0 0 1-.19-.46v-1.78c0-.11-.04-.17-.11-.19-.07-.02-.14 0-.22.08-1.51 1.98-3.58 2.97-6.21 2.97s-4.69-.7-6.51-2.11c-1.82-1.4-3.12-3.33-3.92-5.78-.61-1.87-.92-4.05-.92-6.53s.32-4.79.97-6.7c.83-2.3 2.13-4.13 3.92-5.48s3.99-2.02 6.62-2.02 4.61.9 6.05 2.7c.07.11.14.14.22.11.07-.04.11-.11.11-.22v-11.56c0-.18.06-.33.19-.46Zm-.24 23.73c0-2.41-.4-4.3-1.19-5.67-.83-1.4-2.03-2.11-3.62-2.11-1.69 0-2.97.7-3.83 2.11-.9 1.4-1.35 3.31-1.35 5.72 0 2.16.38 3.96 1.13 5.4.9 1.55 2.23 2.32 4 2.32 1.62 0 2.88-.77 3.78-2.32.72-1.33 1.08-3.15 1.08-5.45ZM574.18 436.2c.12-.13.28-.19.46-.19h6.32c.18 0 .33.06.46.19s.19.28.19.46v26.46c0 .18-.06.33-.19.46a.62.62 0 0 1-.46.19h-6.32a.62.62 0 0 1-.46-.19.62.62 0 0 1-.19-.46v-1.84c0-.11-.04-.17-.11-.19-.07-.02-.14.03-.22.13-1.44 1.94-3.67 2.92-6.7 2.92-2.74 0-4.99-.83-6.75-2.48-1.76-1.66-2.65-3.98-2.65-6.97v-18.04c0-.18.06-.33.19-.46.12-.13.28-.19.46-.19h6.26c.18 0 .33.06.46.19s.19.28.19.46v16.15c0 1.44.39 2.61 1.16 3.51.77.9 1.84 1.35 3.21 1.35 1.22 0 2.23-.37 3.02-1.11.79-.74 1.28-1.7 1.46-2.89v-17.01c0-.18.06-.33.19-.46ZM591.94 462.04c-2.11-1.44-3.61-3.42-4.51-5.94-.61-1.8-.92-3.92-.92-6.37s.3-4.5.92-6.26c.86-2.45 2.36-4.37 4.48-5.78s4.63-2.11 7.51-2.11 5.41.72 7.59 2.16c2.18 1.44 3.63 3.26 4.35 5.45.29.86.43 1.51.43 1.94v.11c0 .32-.18.52-.54.59l-6.21.92h-.11c-.32 0-.54-.18-.65-.54l-.16-.86c-.25-.94-.81-1.71-1.67-2.32-.86-.61-1.89-.92-3.08-.92s-2.12.29-2.92.86c-.79.58-1.35 1.37-1.67 2.38-.4 1.08-.59 2.56-.59 4.43s.18 3.35.54 4.43c.32 1.08.89 1.93 1.7 2.54.81.61 1.79.92 2.94.92s2.1-.3 2.94-.89c.84-.59 1.43-1.41 1.75-2.46.04-.07.05-.18.05-.32.04-.04.05-.09.05-.16.04-.43.29-.61.76-.54l6.21.97c.36.07.54.27.54.59 0 .29-.11.83-.32 1.62-.76 2.41-2.22 4.3-4.4 5.67s-4.69 2.05-7.53 2.05-5.37-.72-7.48-2.16ZM631.95 441.92a.62.62 0 0 1-.46.19h-5.18c-.18 0-.27.09-.27.27v11.45c0 1.19.24 2.07.73 2.65.49.58 1.27.86 2.35.86h1.78c.18 0 .33.06.46.19s.19.28.19.46v5.13c0 .4-.22.63-.65.7-1.51.07-2.59.11-3.24.11-2.99 0-5.22-.49-6.7-1.49-1.48-.99-2.23-2.85-2.27-5.59v-14.47c0-.18-.09-.27-.27-.27h-3.08a.62.62 0 0 1-.46-.19.62.62 0 0 1-.19-.46v-4.81c0-.18.06-.33.19-.46.12-.13.28-.19.46-.19h3.08c.18 0 .27-.09.27-.27v-6.43c0-.18.06-.33.19-.46.12-.13.28-.19.46-.19h6.05c.18 0 .33.06.46.19.12.13.19.28.19.46v6.43c0 .18.09.27.27.27h5.18c.18 0 .33.06.46.19s.19.28.19.46v4.81c0 .18-.06.33-.19.46ZM641.48 463.12c-1.8-.68-3.2-1.64-4.18-2.86-.99-1.22-1.49-2.61-1.49-4.16v-.54c0-.18.06-.33.19-.46a.62.62 0 0 1 .46-.19h5.99c.18 0 .33.06.46.19s.19.28.19.46v.05c0 .79.44 1.47 1.32 2.02.88.56 1.99.84 3.32.84 1.22 0 2.21-.24 2.97-.73s1.13-1.09 1.13-1.81c0-.65-.32-1.13-.97-1.46-.65-.32-1.71-.67-3.19-1.03-1.69-.43-3.02-.85-4-1.24-2.3-.79-4.14-1.76-5.51-2.92-1.37-1.15-2.05-2.81-2.05-4.97 0-2.66 1.03-4.78 3.11-6.35 2.07-1.57 4.81-2.35 8.23-2.35 2.3 0 4.32.37 6.05 1.11 1.73.74 3.07 1.77 4.02 3.1.95 1.33 1.43 2.84 1.43 4.54 0 .18-.06.33-.19.46a.62.62 0 0 1-.46.19h-5.78a.62.62 0 0 1-.46-.19.62.62 0 0 1-.19-.46c0-.79-.41-1.46-1.22-2s-1.88-.81-3.21-.81c-1.19 0-2.16.22-2.92.65s-1.13 1.03-1.13 1.78.37 1.26 1.11 1.62c.74.36 1.97.74 3.7 1.13.4.11.85.23 1.35.35.5.13 1.04.28 1.62.46 2.56.76 4.57 1.73 6.05 2.92 1.48 1.19 2.21 2.92 2.21 5.18 0 2.66-1.05 4.74-3.16 6.24-2.11 1.49-4.94 2.24-8.5 2.24-2.41 0-4.52-.34-6.32-1.03Z" class="cls-2"/><path d="M205.82 241.59c.45.45.67 1.03.67 1.75v14.38c0 .72-.22 1.3-.67 1.75-.45.45-1.03.67-1.75.67h-22.45c-.63 0-.94.32-.94.94v71.5c0 .72-.22 1.3-.67 1.75-.45.45-1.03.67-1.75.67h-17.47c-.72 0-1.3-.22-1.75-.67-.45-.45-.67-1.03-.67-1.75v-71.5c0-.63-.32-.94-.94-.94h-21.64c-.72 0-1.3-.22-1.75-.67-.45-.45-.67-1.03-.67-1.75v-14.38c0-.72.22-1.3.67-1.75.45-.45 1.03-.67 1.75-.67h68.28c.72 0 1.3.22 1.75.67ZM214.62 329.62c-5.6-4.3-9.39-10.12-11.36-17.47-1.08-3.67-1.61-7.71-1.61-12.1s.58-8.82 1.75-13.04c2.06-7.08 5.89-12.61 11.49-16.6 5.6-3.99 12.39-5.98 20.36-5.98s14.56 2 20.03 5.98c5.46 3.99 9.27 9.48 11.42 16.46 1.25 4.03 1.88 8.33 1.88 12.9 0 4.12-.49 8.06-1.48 11.83-1.88 7.53-5.65 13.49-11.29 17.88-5.65 4.39-12.55 6.59-20.7 6.59s-14.9-2.15-20.5-6.45Zm27.02-15.12c1.75-1.66 2.98-3.92 3.7-6.79.54-2.33.81-4.88.81-7.66s-.32-5.29-.94-7.8c-.72-2.78-1.93-4.93-3.63-6.45-1.7-1.52-3.85-2.28-6.45-2.28s-4.86.76-6.52 2.28c-1.66 1.52-2.85 3.68-3.56 6.45-.63 1.97-.94 4.57-.94 7.8 0 2.78.27 5.33.81 7.66.81 2.87 2.06 5.13 3.76 6.79 1.7 1.66 3.85 2.49 6.45 2.49s4.77-.83 6.52-2.49ZM345.73 300.59c0 6.36-.94 12.01-2.82 16.93-2.06 5.56-5.4 10.06-10.01 13.51-4.62 3.45-9.79 5.17-15.52 5.17-6.81 0-11.92-2.06-15.32-6.18-.27-.36-.52-.49-.74-.4-.22.09-.34.36-.34.81v26.75c0 .72-.22 1.3-.67 1.75-.45.45-1.03.67-1.75.67h-17.47c-.72 0-1.3-.22-1.75-.67-.45-.45-.67-1.03-.67-1.75v-89.24c0-.72.22-1.3.67-1.75.45-.45 1.03-.67 1.75-.67h17.47c.72 0 1.3.22 1.75.67.45.45.67 1.03.67 1.75v3.23c0 .45.11.72.34.81.22.09.47-.04.74-.4 3.4-4.75 8.51-7.12 15.32-7.12 5.82 0 11.2 1.93 16.13 5.78 4.93 3.85 8.29 8.83 10.08 14.92 1.43 4.39 2.15 9.54 2.15 15.46Zm-23.92-.4c0-4.57-.76-8.29-2.29-11.16-1.88-3.31-4.62-4.97-8.2-4.97s-6.05 1.7-7.93 5.11c-1.52 2.87-2.28 6.54-2.28 11.02 0 4.93.81 8.87 2.42 11.83 1.88 3.05 4.48 4.57 7.8 4.57 3.49 0 6.18-1.57 8.06-4.7 1.61-2.96 2.42-6.85 2.42-11.69ZM394.12 240.91h18.41c.72 0 1.3.22 1.75.67.45.45.67 1.03.67 1.75v89.24c0 .72-.23 1.3-.67 1.75-.45.45-1.03.67-1.75.67h-17.47c-.72 0-1.3-.22-1.75-.67-.45-.45-.67-1.03-.67-1.75v-70.29c0-.27-.09-.49-.27-.67-.18-.18-.4-.22-.67-.13l-11.29 1.34h-.4c-1.43 0-2.15-.76-2.15-2.28v-12.5c0-1.25.67-2.15 2.02-2.69l11.29-3.9c.81-.36 1.79-.54 2.96-.54ZM434.57 327.94c-5.91-5.78-8.87-13.64-8.87-23.59v-32.79c0-9.86 2.96-17.61 8.87-23.25 5.91-5.65 14.02-8.47 24.33-8.47s18.46 2.85 24.46 8.53c6 5.69 9.01 13.42 9.01 23.18v32.79c0 9.95-3 17.81-9.01 23.59-6 5.78-14.16 8.67-24.46 8.67s-18.41-2.89-24.33-8.67Zm32.46-13.71c2.02-2.1 3.02-4.99 3.02-8.67v-34.81c0-3.67-1.01-6.56-3.02-8.67-2.02-2.1-4.73-3.16-8.13-3.16s-5.96 1.05-7.93 3.16c-1.97 2.11-2.96 5-2.96 8.67v34.81c0 3.68.96 6.56 2.89 8.67 1.93 2.11 4.59 3.16 8 3.16s6.12-1.05 8.13-3.16ZM511.32 327.94c-5.91-5.78-8.87-13.64-8.87-23.59v-32.79c0-9.86 2.96-17.61 8.87-23.25 5.91-5.65 14.02-8.47 24.33-8.47s18.46 2.85 24.46 8.53c6 5.69 9.01 13.42 9.01 23.18v32.79c0 9.95-3 17.81-9.01 23.59-6 5.78-14.16 8.67-24.46 8.67s-18.41-2.89-24.33-8.67Zm32.46-13.71c2.02-2.1 3.02-4.99 3.02-8.67v-34.81c0-3.67-1.01-6.56-3.02-8.67-2.02-2.1-4.73-3.16-8.13-3.16s-5.96 1.05-7.93 3.16c-1.97 2.11-2.96 5-2.96 8.67v34.81c0 3.68.96 6.56 2.89 8.67 1.93 2.11 4.59 3.16 8 3.16s6.12-1.05 8.13-3.16Z" class="cls-5"/></svg>
