<svg xmlns="http://www.w3.org/2000/svg" width="48" height="48" viewBox="0 0 48 48" fill="none">
<path d="M31.3 21.35C32.0667 21.35 32.7083 21.0833 33.225 20.55C33.7417 20.0167 34 19.3833 34 18.65C34 17.8833 33.7417 17.2417 33.225 16.725C32.7083 16.2083 32.0667 15.95 31.3 15.95C30.5667 15.95 29.9333 16.2083 29.4 16.725C28.8667 17.2417 28.6 17.8833 28.6 18.65C28.6 19.3833 28.8667 20.0167 29.4 20.55C29.9333 21.0833 30.5667 21.35 31.3 21.35ZM16.7 21.35C17.4667 21.35 18.1083 21.0833 18.625 20.55C19.1417 20.0167 19.4 19.3833 19.4 18.65C19.4 17.8833 19.1417 17.2417 18.625 16.725C18.1083 16.2083 17.4667 15.95 16.7 15.95C15.9667 15.95 15.3333 16.2083 14.8 16.725C14.2667 17.2417 14 17.8833 14 18.65C14 19.3833 14.2667 20.0167 14.8 20.55C15.3333 21.0833 15.9667 21.35 16.7 21.35ZM24 27.15C21.7667 27.15 19.7417 27.775 17.925 29.025C16.1083 30.275 14.7667 31.9333 13.9 34H16.55C17.2833 32.6 18.3167 31.5167 19.65 30.75C20.9833 29.9833 22.45 29.6 24.05 29.6C25.6167 29.6 27.0583 29.9917 28.375 30.775C29.6917 31.5583 30.7333 32.6333 31.5 34H34.1C33.2667 31.9 31.9333 30.2333 30.1 29C28.2667 27.7667 26.2333 27.15 24 27.15ZM24 44C21.2333 44 18.6333 43.475 16.2 42.425C13.7667 41.375 11.65 39.95 9.85 38.15C8.05 36.35 6.625 34.2333 5.575 31.8C4.525 29.3667 4 26.7667 4 24C4 21.2333 4.525 18.6333 5.575 16.2C6.625 13.7667 8.05 11.65 9.85 9.85C11.65 8.05 13.7667 6.625 16.2 5.575C18.6333 4.525 21.2333 4 24 4C26.7667 4 29.3667 4.525 31.8 5.575C34.2333 6.625 36.35 8.05 38.15 9.85C39.95 11.65 41.375 13.7667 42.425 16.2C43.475 18.6333 44 21.2333 44 24C44 26.7667 43.475 29.3667 42.425 31.8C41.375 34.2333 39.95 36.35 38.15 38.15C36.35 39.95 34.2333 41.375 31.8 42.425C29.3667 43.475 26.7667 44 24 44ZM24 41C28.7333 41 32.75 39.35 36.05 36.05C39.35 32.75 41 28.7333 41 24C41 19.2667 39.35 15.25 36.05 11.95C32.75 8.65 28.7333 7 24 7C19.2667 7 15.25 8.65 11.95 11.95C8.65 15.25 7 19.2667 7 24C7 28.7333 8.65 32.75 11.95 36.05C15.25 39.35 19.2667 41 24 41Z" fill="#7D80DA"/>
</svg>